<?xml version="1.0" encoding="UTF-8" standalone="no"?>
<!DOCTYPE svg PUBLIC "-//W3C//DTD SVG 1.1//EN"
 "http://www.w3.org/Graphics/SVG/1.1/DTD/svg11.dtd">
<!-- Generated by graphviz version 2.38.0 (20140413.2041)
 -->
<!-- Title: systemd Pages: 1 -->
<svg width="6327pt" height="404pt"
 viewBox="0.00 0.00 6326.73 404.00" xmlns="http://www.w3.org/2000/svg" xmlns:xlink="http://www.w3.org/1999/xlink">
<g id="graph0" class="graph" transform="scale(1 1) rotate(0) translate(4 400)">
<title>systemd</title>
<polygon fill="white" stroke="none" points="-4,4 -4,-400 6322.73,-400 6322.73,4 -4,4"/>
<!-- systemd&#45;udevd.service -->
<g id="node1" class="node"><title>systemd&#45;udevd.service</title>
<ellipse fill="none" stroke="black" cx="457.887" cy="-306" rx="117.779" ry="18"/>
<text text-anchor="middle" x="457.887" y="-302.3" font-family="Times,serif" font-size="14.00">systemd&#45;udevd.service</text>
</g>
<!-- systemd&#45;tmpfiles&#45;setup&#45;dev.service -->
<g id="node2" class="node"><title>systemd&#45;tmpfiles&#45;setup&#45;dev.service</title>
<ellipse fill="none" stroke="black" cx="422.887" cy="-234" rx="174.369" ry="18"/>
<text text-anchor="middle" x="422.887" y="-230.3" font-family="Times,serif" font-size="14.00">systemd&#45;tmpfiles&#45;setup&#45;dev.service</text>
</g>
<!-- systemd&#45;udevd.service&#45;&gt;systemd&#45;tmpfiles&#45;setup&#45;dev.service -->
<g id="edge1" class="edge"><title>systemd&#45;udevd.service&#45;&gt;systemd&#45;tmpfiles&#45;setup&#45;dev.service</title>
<path fill="none" stroke="green" d="M449.235,-287.697C445.251,-279.728 440.437,-270.1 436.019,-261.264"/>
<polygon fill="green" stroke="green" points="439.042,-259.483 431.439,-252.104 432.781,-262.614 439.042,-259.483"/>
</g>
<!-- systemd&#45;sysusers.service -->
<g id="node3" class="node"><title>systemd&#45;sysusers.service</title>
<ellipse fill="none" stroke="black" cx="624.887" cy="-162" rx="129.977" ry="18"/>
<text text-anchor="middle" x="624.887" y="-158.3" font-family="Times,serif" font-size="14.00">systemd&#45;sysusers.service</text>
</g>
<!-- systemd&#45;udevd.service&#45;&gt;systemd&#45;sysusers.service -->
<g id="edge2" class="edge"><title>systemd&#45;udevd.service&#45;&gt;systemd&#45;sysusers.service</title>
<path fill="none" stroke="green" d="M536.534,-292.596C561.935,-284.872 588.099,-272.338 605.887,-252 620.631,-235.142 624.873,-209.666 625.722,-190.284"/>
<polygon fill="green" stroke="green" points="629.222,-190.294 625.89,-180.237 622.223,-190.177 629.222,-190.294"/>
</g>
<!-- systemd&#45;tmpfiles&#45;setup&#45;dev.service&#45;&gt;systemd&#45;sysusers.service -->
<g id="edge4" class="edge"><title>systemd&#45;tmpfiles&#45;setup&#45;dev.service&#45;&gt;systemd&#45;sysusers.service</title>
<path fill="none" stroke="green" d="M470.247,-216.588C499.815,-206.342 538.023,-193.101 569.062,-182.345"/>
<polygon fill="green" stroke="green" points="570.565,-185.529 578.867,-178.947 568.273,-178.915 570.565,-185.529"/>
</g>
<!-- kmod&#45;static&#45;nodes.service -->
<g id="node6" class="node"><title>kmod&#45;static&#45;nodes.service</title>
<ellipse fill="none" stroke="black" cx="343.887" cy="-162" rx="132.677" ry="18"/>
<text text-anchor="middle" x="343.887" y="-158.3" font-family="Times,serif" font-size="14.00">kmod&#45;static&#45;nodes.service</text>
</g>
<!-- systemd&#45;tmpfiles&#45;setup&#45;dev.service&#45;&gt;kmod&#45;static&#45;nodes.service -->
<g id="edge5" class="edge"><title>systemd&#45;tmpfiles&#45;setup&#45;dev.service&#45;&gt;kmod&#45;static&#45;nodes.service</title>
<path fill="none" stroke="green" d="M403.763,-216.055C393.842,-207.264 381.559,-196.38 370.705,-186.763"/>
<polygon fill="green" stroke="green" points="372.914,-184.044 363.108,-180.032 368.272,-189.283 372.914,-184.044"/>
</g>
<!-- systemd&#45;hwdb&#45;update.service -->
<g id="node4" class="node"><title>systemd&#45;hwdb&#45;update.service</title>
<ellipse fill="none" stroke="black" cx="172.887" cy="-306" rx="149.473" ry="18"/>
<text text-anchor="middle" x="172.887" y="-302.3" font-family="Times,serif" font-size="14.00">systemd&#45;hwdb&#45;update.service</text>
</g>
<!-- systemd&#45;remount&#45;fs.service -->
<g id="node5" class="node"><title>systemd&#45;remount&#45;fs.service</title>
<ellipse fill="none" stroke="black" cx="782.887" cy="-90" rx="139.976" ry="18"/>
<text text-anchor="middle" x="782.887" y="-86.3" font-family="Times,serif" font-size="14.00">systemd&#45;remount&#45;fs.service</text>
</g>
<!-- systemd&#45;hwdb&#45;update.service&#45;&gt;systemd&#45;remount&#45;fs.service -->
<g id="edge3" class="edge"><title>systemd&#45;hwdb&#45;update.service&#45;&gt;systemd&#45;remount&#45;fs.service</title>
<path fill="none" stroke="green" d="M170.018,-287.794C165.556,-254.49 161.265,-181.224 201.887,-144 233.43,-115.095 476.427,-101.258 638.013,-95.1898"/>
<polygon fill="green" stroke="green" points="638.189,-98.6858 648.053,-94.8188 637.931,-91.6906 638.189,-98.6858"/>
</g>
<!-- systemd&#45;fsck&#45;root.service -->
<g id="node17" class="node"><title>systemd&#45;fsck&#45;root.service</title>
<ellipse fill="none" stroke="black" cx="1093.89" cy="-18" rx="130.777" ry="18"/>
<text text-anchor="middle" x="1093.89" y="-14.3" font-family="Times,serif" font-size="14.00">systemd&#45;fsck&#45;root.service</text>
</g>
<!-- systemd&#45;remount&#45;fs.service&#45;&gt;systemd&#45;fsck&#45;root.service -->
<g id="edge63" class="edge"><title>systemd&#45;remount&#45;fs.service&#45;&gt;systemd&#45;fsck&#45;root.service</title>
<path fill="none" stroke="green" d="M849.223,-74.0691C898.998,-62.8658 967.182,-47.5188 1018.93,-35.8716"/>
<polygon fill="green" stroke="green" points="1019.73,-39.2783 1028.72,-33.6678 1018.2,-32.4492 1019.73,-39.2783"/>
</g>
<!-- systemd&#45;udev&#45;trigger.service -->
<g id="node7" class="node"><title>systemd&#45;udev&#45;trigger.service</title>
<ellipse fill="none" stroke="black" cx="457.887" cy="-378" rx="146.474" ry="18"/>
<text text-anchor="middle" x="457.887" y="-374.3" font-family="Times,serif" font-size="14.00">systemd&#45;udev&#45;trigger.service</text>
</g>
<!-- systemd&#45;udev&#45;trigger.service&#45;&gt;systemd&#45;udevd.service -->
<g id="edge7" class="edge"><title>systemd&#45;udev&#45;trigger.service&#45;&gt;systemd&#45;udevd.service</title>
<path fill="none" stroke="#a8a8a8" d="M457.887,-359.697C457.887,-351.983 457.887,-342.712 457.887,-334.112"/>
<polygon fill="#a8a8a8" stroke="#a8a8a8" points="461.387,-334.104 457.887,-324.104 454.387,-334.104 461.387,-334.104"/>
</g>
<!-- systemd&#45;udev&#45;trigger.service&#45;&gt;systemd&#45;hwdb&#45;update.service -->
<g id="edge6" class="edge"><title>systemd&#45;udev&#45;trigger.service&#45;&gt;systemd&#45;hwdb&#45;update.service</title>
<path fill="none" stroke="green" d="M395.343,-361.638C351.225,-350.802 291.99,-336.253 245.738,-324.893"/>
<polygon fill="green" stroke="green" points="246.324,-321.433 235.777,-322.447 244.654,-328.231 246.324,-321.433"/>
</g>
<!-- icinga2.service -->
<g id="node8" class="node"><title>icinga2.service</title>
<ellipse fill="none" stroke="black" cx="2932.89" cy="-378" rx="81.4863" ry="18"/>
<text text-anchor="middle" x="2932.89" y="-374.3" font-family="Times,serif" font-size="14.00">icinga2.service</text>
</g>
<!-- mysql.service -->
<g id="node9" class="node"><title>mysql.service</title>
<ellipse fill="none" stroke="black" cx="2642.89" cy="-306" rx="75.2868" ry="18"/>
<text text-anchor="middle" x="2642.89" y="-302.3" font-family="Times,serif" font-size="14.00">mysql.service</text>
</g>
<!-- icinga2.service&#45;&gt;mysql.service -->
<g id="edge8" class="edge"><title>icinga2.service&#45;&gt;mysql.service</title>
<path fill="none" stroke="green" d="M2880.03,-364.242C2830.31,-352.239 2755.89,-334.277 2703.72,-321.683"/>
<polygon fill="green" stroke="green" points="2704.46,-318.262 2693.92,-319.318 2702.82,-325.066 2704.46,-318.262"/>
</g>
<!-- postgresql.service -->
<g id="node10" class="node"><title>postgresql.service</title>
<ellipse fill="none" stroke="black" cx="2832.89" cy="-306" rx="96.6831" ry="18"/>
<text text-anchor="middle" x="2832.89" y="-302.3" font-family="Times,serif" font-size="14.00">postgresql.service</text>
</g>
<!-- icinga2.service&#45;&gt;postgresql.service -->
<g id="edge9" class="edge"><title>icinga2.service&#45;&gt;postgresql.service</title>
<path fill="none" stroke="green" d="M2909.44,-360.588C2896.12,-351.265 2879.26,-339.462 2864.76,-329.308"/>
<polygon fill="green" stroke="green" points="2866.73,-326.419 2856.53,-323.552 2862.72,-332.154 2866.73,-326.419"/>
</g>
<!-- mariadb.service -->
<g id="node11" class="node"><title>mariadb.service</title>
<ellipse fill="none" stroke="black" cx="3033.89" cy="-306" rx="85.5853" ry="18"/>
<text text-anchor="middle" x="3033.89" y="-302.3" font-family="Times,serif" font-size="14.00">mariadb.service</text>
</g>
<!-- icinga2.service&#45;&gt;mariadb.service -->
<g id="edge10" class="edge"><title>icinga2.service&#45;&gt;mariadb.service</title>
<path fill="none" stroke="green" d="M2956.57,-360.588C2970.02,-351.265 2987.05,-339.462 3001.7,-329.308"/>
<polygon fill="green" stroke="green" points="3003.78,-332.125 3010.01,-323.552 2999.79,-326.371 3003.78,-332.125"/>
</g>
<!-- carbon&#45;cache.service -->
<g id="node12" class="node"><title>carbon&#45;cache.service</title>
<ellipse fill="none" stroke="black" cx="3247.89" cy="-306" rx="109.681" ry="18"/>
<text text-anchor="middle" x="3247.89" y="-302.3" font-family="Times,serif" font-size="14.00">carbon&#45;cache.service</text>
</g>
<!-- icinga2.service&#45;&gt;carbon&#45;cache.service -->
<g id="edge11" class="edge"><title>icinga2.service&#45;&gt;carbon&#45;cache.service</title>
<path fill="none" stroke="green" d="M2988.12,-364.727C3040.13,-353.168 3118.37,-335.782 3175.39,-323.111"/>
<polygon fill="green" stroke="green" points="3176.41,-326.468 3185.42,-320.882 3174.9,-319.635 3176.41,-326.468"/>
</g>
<!-- systemd&#45;update&#45;utmp.service -->
<g id="node13" class="node"><title>systemd&#45;update&#45;utmp.service</title>
<ellipse fill="none" stroke="black" cx="1219.89" cy="-306" rx="148.674" ry="18"/>
<text text-anchor="middle" x="1219.89" y="-302.3" font-family="Times,serif" font-size="14.00">systemd&#45;update&#45;utmp.service</text>
</g>
<!-- systemd&#45;update&#45;utmp.service&#45;&gt;systemd&#45;remount&#45;fs.service -->
<g id="edge14" class="edge"><title>systemd&#45;update&#45;utmp.service&#45;&gt;systemd&#45;remount&#45;fs.service</title>
<path fill="none" stroke="green" d="M1214.46,-287.969C1202.76,-254.304 1171.81,-179.441 1117.89,-144 1099.09,-131.647 983.426,-115.163 893.201,-103.877"/>
<polygon fill="green" stroke="green" points="893.523,-100.391 883.167,-102.631 892.659,-107.337 893.523,-100.391"/>
</g>
<!-- auditd.service -->
<g id="node14" class="node"><title>auditd.service</title>
<ellipse fill="none" stroke="black" cx="1353.89" cy="-234" rx="77.1866" ry="18"/>
<text text-anchor="middle" x="1353.89" y="-230.3" font-family="Times,serif" font-size="14.00">auditd.service</text>
</g>
<!-- systemd&#45;update&#45;utmp.service&#45;&gt;auditd.service -->
<g id="edge12" class="edge"><title>systemd&#45;update&#45;utmp.service&#45;&gt;auditd.service</title>
<path fill="none" stroke="green" d="M1251.64,-288.411C1270.57,-278.524 1294.74,-265.897 1314.83,-255.403"/>
<polygon fill="green" stroke="green" points="1316.5,-258.481 1323.74,-250.749 1313.25,-252.277 1316.5,-258.481"/>
</g>
<!-- systemd&#45;tmpfiles&#45;setup.service -->
<g id="node15" class="node"><title>systemd&#45;tmpfiles&#45;setup.service</title>
<ellipse fill="none" stroke="black" cx="969.887" cy="-234" rx="155.173" ry="18"/>
<text text-anchor="middle" x="969.887" y="-230.3" font-family="Times,serif" font-size="14.00">systemd&#45;tmpfiles&#45;setup.service</text>
</g>
<!-- systemd&#45;update&#45;utmp.service&#45;&gt;systemd&#45;tmpfiles&#45;setup.service -->
<g id="edge13" class="edge"><title>systemd&#45;update&#45;utmp.service&#45;&gt;systemd&#45;tmpfiles&#45;setup.service</title>
<path fill="none" stroke="green" d="M1163.78,-289.291C1125.96,-278.7 1075.9,-264.682 1036.12,-253.544"/>
<polygon fill="green" stroke="green" points="1036.81,-250.104 1026.24,-250.778 1034.92,-256.845 1036.81,-250.104"/>
</g>
<!-- systemd&#45;tmpfiles&#45;setup.service&#45;&gt;systemd&#45;sysusers.service -->
<g id="edge43" class="edge"><title>systemd&#45;tmpfiles&#45;setup.service&#45;&gt;systemd&#45;sysusers.service</title>
<path fill="none" stroke="green" d="M896.299,-218.069C839.99,-206.644 762.442,-190.91 704.653,-179.185"/>
<polygon fill="green" stroke="green" points="705.327,-175.75 694.83,-177.191 703.935,-182.61 705.327,-175.75"/>
</g>
<!-- systemd&#45;journal&#45;flush.service -->
<g id="node19" class="node"><title>systemd&#45;journal&#45;flush.service</title>
<ellipse fill="none" stroke="black" cx="1977.89" cy="-162" rx="147.574" ry="18"/>
<text text-anchor="middle" x="1977.89" y="-158.3" font-family="Times,serif" font-size="14.00">systemd&#45;journal&#45;flush.service</text>
</g>
<!-- systemd&#45;tmpfiles&#45;setup.service&#45;&gt;systemd&#45;journal&#45;flush.service -->
<g id="edge44" class="edge"><title>systemd&#45;tmpfiles&#45;setup.service&#45;&gt;systemd&#45;journal&#45;flush.service</title>
<path fill="none" stroke="green" d="M1099.34,-224.01C1290.94,-210.705 1648.24,-185.892 1842.94,-172.371"/>
<polygon fill="green" stroke="green" points="1843.22,-175.861 1852.95,-171.676 1842.73,-168.878 1843.22,-175.861"/>
</g>
<!-- systemd&#45;fsck@dev&#45;disk&#45;by\x2duuid&#45;b74a0064\x2d2552\x2d4d2d\x2d8eed\x2d9be58a1e7827.service -->
<g id="node16" class="node"><title>systemd&#45;fsck@dev&#45;disk&#45;by\x2duuid&#45;b74a0064\x2d2552\x2d4d2d\x2d8eed\x2d9be58a1e7827.service</title>
<ellipse fill="none" stroke="black" cx="1404.89" cy="-90" rx="464.118" ry="18"/>
<text text-anchor="middle" x="1404.89" y="-86.3" font-family="Times,serif" font-size="14.00">systemd&#45;fsck@dev&#45;disk&#45;byx2duuid&#45;b74a0064x2d2552x2d4d2dx2d8eedx2d9be58a1e7827.service</text>
</g>
<!-- systemd&#45;fsck@dev&#45;disk&#45;by\x2duuid&#45;b74a0064\x2d2552\x2d4d2d\x2d8eed\x2d9be58a1e7827.service&#45;&gt;systemd&#45;fsck&#45;root.service -->
<g id="edge15" class="edge"><title>systemd&#45;fsck@dev&#45;disk&#45;by\x2duuid&#45;b74a0064\x2d2552\x2d4d2d\x2d8eed\x2d9be58a1e7827.service&#45;&gt;systemd&#45;fsck&#45;root.service</title>
<path fill="none" stroke="green" d="M1330.39,-72.2333C1281.56,-61.2407 1217.93,-46.919 1168.97,-35.8997"/>
<polygon fill="green" stroke="green" points="1169.59,-32.4528 1159.07,-33.6715 1168.06,-39.282 1169.59,-32.4528"/>
</g>
<!-- systemd&#45;update&#45;utmp&#45;runlevel.service -->
<g id="node18" class="node"><title>systemd&#45;update&#45;utmp&#45;runlevel.service</title>
<ellipse fill="none" stroke="black" cx="1219.89" cy="-378" rx="189.567" ry="18"/>
<text text-anchor="middle" x="1219.89" y="-374.3" font-family="Times,serif" font-size="14.00">systemd&#45;update&#45;utmp&#45;runlevel.service</text>
</g>
<!-- systemd&#45;update&#45;utmp&#45;runlevel.service&#45;&gt;systemd&#45;update&#45;utmp.service -->
<g id="edge16" class="edge"><title>systemd&#45;update&#45;utmp&#45;runlevel.service&#45;&gt;systemd&#45;update&#45;utmp.service</title>
<path fill="none" stroke="green" d="M1213.97,-359.697C1213.18,-351.983 1212.95,-342.712 1213.29,-334.112"/>
<polygon fill="green" stroke="green" points="1216.79,-334.324 1213.99,-324.104 1209.8,-333.836 1216.79,-334.324"/>
</g>
<!-- systemd&#45;update&#45;utmp&#45;runlevel.service&#45;&gt;systemd&#45;update&#45;utmp.service -->
<g id="edge17" class="edge"><title>systemd&#45;update&#45;utmp&#45;runlevel.service&#45;&gt;systemd&#45;update&#45;utmp.service</title>
<path fill="none" stroke="darkblue" d="M1225.8,-359.697C1226.6,-351.983 1226.82,-342.712 1226.48,-334.112"/>
<polygon fill="darkblue" stroke="darkblue" points="1229.97,-333.836 1225.78,-324.104 1222.99,-334.324 1229.97,-333.836"/>
</g>
<!-- systemd&#45;journal&#45;flush.service&#45;&gt;systemd&#45;remount&#45;fs.service -->
<g id="edge18" class="edge"><title>systemd&#45;journal&#45;flush.service&#45;&gt;systemd&#45;remount&#45;fs.service</title>
<path fill="none" stroke="green" d="M1841.4,-155.157C1599.43,-144.618 1104.5,-122.206 931.887,-108 918.419,-106.892 904.288,-105.534 890.316,-104.073"/>
<polygon fill="green" stroke="green" points="890.496,-100.573 880.181,-102.994 889.754,-107.534 890.496,-100.573"/>
</g>
<!-- systemd&#45;journald.service -->
<g id="node20" class="node"><title>systemd&#45;journald.service</title>
<ellipse fill="none" stroke="black" cx="2014.89" cy="-90" rx="128.077" ry="18"/>
<text text-anchor="middle" x="2014.89" y="-86.3" font-family="Times,serif" font-size="14.00">systemd&#45;journald.service</text>
</g>
<!-- systemd&#45;journal&#45;flush.service&#45;&gt;systemd&#45;journald.service -->
<g id="edge19" class="edge"><title>systemd&#45;journal&#45;flush.service&#45;&gt;systemd&#45;journald.service</title>
<path fill="none" stroke="green" d="M1981.12,-143.697C1984.58,-135.559 1989.59,-125.689 1994.77,-116.701"/>
<polygon fill="green" stroke="green" points="1997.79,-118.476 1999.95,-108.104 1991.79,-114.861 1997.79,-118.476"/>
</g>
<!-- systemd&#45;journal&#45;flush.service&#45;&gt;systemd&#45;journald.service -->
<g id="edge20" class="edge"><title>systemd&#45;journal&#45;flush.service&#45;&gt;systemd&#45;journald.service</title>
<path fill="none" stroke="black" d="M1992.72,-144.055C1997.78,-136.091 2003.12,-126.411 2007.44,-117.51"/>
<polygon fill="black" stroke="black" points="2010.69,-118.825 2011.67,-108.275 2004.33,-115.913 2010.69,-118.825"/>
</g>
<!-- systemd&#45;update&#45;done.service -->
<g id="node21" class="node"><title>systemd&#45;update&#45;done.service</title>
<ellipse fill="none" stroke="black" cx="146.887" cy="-378" rx="146.774" ry="18"/>
<text text-anchor="middle" x="146.887" y="-374.3" font-family="Times,serif" font-size="14.00">systemd&#45;update&#45;done.service</text>
</g>
<!-- systemd&#45;update&#45;done.service&#45;&gt;systemd&#45;hwdb&#45;update.service -->
<g id="edge21" class="edge"><title>systemd&#45;update&#45;done.service&#45;&gt;systemd&#45;hwdb&#45;update.service</title>
<path fill="none" stroke="green" d="M153.314,-359.697C156.242,-351.813 159.774,-342.304 163.027,-333.546"/>
<polygon fill="green" stroke="green" points="166.333,-334.697 166.534,-324.104 159.771,-332.26 166.333,-334.697"/>
</g>
<!-- systemd&#45;timesyncd.service -->
<g id="node22" class="node"><title>systemd&#45;timesyncd.service</title>
<ellipse fill="none" stroke="black" cx="730.887" cy="-306" rx="137.576" ry="18"/>
<text text-anchor="middle" x="730.887" y="-302.3" font-family="Times,serif" font-size="14.00">systemd&#45;timesyncd.service</text>
</g>
<!-- systemd&#45;timesyncd.service&#45;&gt;systemd&#45;sysusers.service -->
<g id="edge23" class="edge"><title>systemd&#45;timesyncd.service&#45;&gt;systemd&#45;sysusers.service</title>
<path fill="none" stroke="green" d="M718.101,-287.871C699.637,-263.137 665.378,-217.242 643.931,-188.512"/>
<polygon fill="green" stroke="green" points="646.505,-186.109 637.718,-180.189 640.896,-190.296 646.505,-186.109"/>
</g>
<!-- systemd&#45;timesyncd.service&#45;&gt;systemd&#45;remount&#45;fs.service -->
<g id="edge24" class="edge"><title>systemd&#45;timesyncd.service&#45;&gt;systemd&#45;remount&#45;fs.service</title>
<path fill="none" stroke="green" d="M735.741,-287.675C742.421,-263.605 754.667,-218.643 763.887,-180 768.806,-159.383 773.788,-135.933 777.415,-118.281"/>
<polygon fill="green" stroke="green" points="780.919,-118.614 779.486,-108.116 774.06,-117.216 780.919,-118.614"/>
</g>
<!-- systemd&#45;timesyncd.service&#45;&gt;systemd&#45;tmpfiles&#45;setup.service -->
<g id="edge22" class="edge"><title>systemd&#45;timesyncd.service&#45;&gt;systemd&#45;tmpfiles&#45;setup.service</title>
<path fill="none" stroke="green" d="M784.226,-289.378C820.092,-278.873 867.57,-264.967 905.535,-253.848"/>
<polygon fill="green" stroke="green" points="906.857,-257.108 915.47,-250.938 904.889,-250.39 906.857,-257.108"/>
</g>
<!-- console&#45;setup.service -->
<g id="node23" class="node"><title>console&#45;setup.service</title>
<ellipse fill="none" stroke="black" cx="3630.89" cy="-378" rx="111.28" ry="18"/>
<text text-anchor="middle" x="3630.89" y="-374.3" font-family="Times,serif" font-size="14.00">console&#45;setup.service</text>
</g>
<!-- console&#45;screen.service -->
<g id="node24" class="node"><title>console&#45;screen.service</title>
<ellipse fill="none" stroke="black" cx="3491.89" cy="-306" rx="116.18" ry="18"/>
<text text-anchor="middle" x="3491.89" y="-302.3" font-family="Times,serif" font-size="14.00">console&#45;screen.service</text>
</g>
<!-- console&#45;setup.service&#45;&gt;console&#45;screen.service -->
<g id="edge25" class="edge"><title>console&#45;setup.service&#45;&gt;console&#45;screen.service</title>
<path fill="none" stroke="green" d="M3598.65,-360.765C3579.23,-350.984 3554.29,-338.428 3533.41,-327.91"/>
<polygon fill="green" stroke="green" points="3534.94,-324.762 3524.43,-323.39 3531.79,-331.014 3534.94,-324.762"/>
</g>
<!-- kbd.service -->
<g id="node25" class="node"><title>kbd.service</title>
<ellipse fill="none" stroke="black" cx="3690.89" cy="-306" rx="64.9885" ry="18"/>
<text text-anchor="middle" x="3690.89" y="-302.3" font-family="Times,serif" font-size="14.00">kbd.service</text>
</g>
<!-- console&#45;setup.service&#45;&gt;kbd.service -->
<g id="edge26" class="edge"><title>console&#45;setup.service&#45;&gt;kbd.service</title>
<path fill="none" stroke="green" d="M3645.41,-360.055C3652.78,-351.457 3661.87,-340.857 3669.97,-331.397"/>
<polygon fill="green" stroke="green" points="3672.65,-333.659 3676.5,-323.789 3667.33,-329.104 3672.65,-333.659"/>
</g>
<!-- flanneld.service -->
<g id="node26" class="node"><title>flanneld.service</title>
<ellipse fill="none" stroke="black" cx="3917.89" cy="-306" rx="84.485" ry="18"/>
<text text-anchor="middle" x="3917.89" y="-302.3" font-family="Times,serif" font-size="14.00">flanneld.service</text>
</g>
<!-- etcd.service -->
<g id="node27" class="node"><title>etcd.service</title>
<ellipse fill="none" stroke="black" cx="3917.89" cy="-234" rx="67.6881" ry="18"/>
<text text-anchor="middle" x="3917.89" y="-230.3" font-family="Times,serif" font-size="14.00">etcd.service</text>
</g>
<!-- flanneld.service&#45;&gt;etcd.service -->
<g id="edge27" class="edge"><title>flanneld.service&#45;&gt;etcd.service</title>
<path fill="none" stroke="green" d="M3917.89,-287.697C3917.89,-279.983 3917.89,-270.712 3917.89,-262.112"/>
<polygon fill="green" stroke="green" points="3921.39,-262.104 3917.89,-252.104 3914.39,-262.104 3921.39,-262.104"/>
</g>
<!-- rescue.service -->
<g id="node28" class="node"><title>rescue.service</title>
<ellipse fill="none" stroke="black" cx="2250.89" cy="-234" rx="78.7863" ry="18"/>
<text text-anchor="middle" x="2250.89" y="-230.3" font-family="Times,serif" font-size="14.00">rescue.service</text>
</g>
<!-- plymouth&#45;start.service -->
<g id="node29" class="node"><title>plymouth&#45;start.service</title>
<ellipse fill="none" stroke="black" cx="2259.89" cy="-162" rx="116.18" ry="18"/>
<text text-anchor="middle" x="2259.89" y="-158.3" font-family="Times,serif" font-size="14.00">plymouth&#45;start.service</text>
</g>
<!-- rescue.service&#45;&gt;plymouth&#45;start.service -->
<g id="edge28" class="edge"><title>rescue.service&#45;&gt;plymouth&#45;start.service</title>
<path fill="none" stroke="green" d="M2253.11,-215.697C2254.1,-207.983 2255.3,-198.712 2256.4,-190.112"/>
<polygon fill="green" stroke="green" points="2259.88,-190.469 2257.69,-180.104 2252.94,-189.576 2259.88,-190.469"/>
</g>
<!-- getty@tty1.service -->
<g id="node30" class="node"><title>getty@tty1.service</title>
<ellipse fill="none" stroke="black" cx="2449.89" cy="-306" rx="100.182" ry="18"/>
<text text-anchor="middle" x="2449.89" y="-302.3" font-family="Times,serif" font-size="14.00">getty@tty1.service</text>
</g>
<!-- rescue.service&#45;&gt;getty@tty1.service -->
<g id="edge29" class="edge"><title>rescue.service&#45;&gt;getty@tty1.service</title>
<path fill="none" stroke="green" d="M2295.86,-248.88C2327.29,-259.435 2369.13,-274.083 2401.31,-285.767"/>
<polygon fill="green" stroke="green" points="2400.37,-289.151 2410.97,-289.291 2402.77,-282.575 2400.37,-289.151"/>
</g>
<!-- getty@tty1.service&#45;&gt;rescue.service -->
<g id="edge50" class="edge"><title>getty@tty1.service&#45;&gt;rescue.service</title>
<path fill="none" stroke="red" d="M2402.05,-290.155C2370.2,-279.426 2328.68,-264.863 2297.16,-253.396"/>
<polygon fill="red" stroke="red" points="2298.32,-250.092 2287.72,-249.944 2295.91,-256.666 2298.32,-250.092"/>
</g>
<!-- systemd&#45;user&#45;sessions.service -->
<g id="node41" class="node"><title>systemd&#45;user&#45;sessions.service</title>
<ellipse fill="none" stroke="black" cx="1985.89" cy="-234" rx="151.373" ry="18"/>
<text text-anchor="middle" x="1985.89" y="-230.3" font-family="Times,serif" font-size="14.00">systemd&#45;user&#45;sessions.service</text>
</g>
<!-- getty@tty1.service&#45;&gt;systemd&#45;user&#45;sessions.service -->
<g id="edge48" class="edge"><title>getty@tty1.service&#45;&gt;systemd&#45;user&#45;sessions.service</title>
<path fill="none" stroke="green" d="M2376.82,-293.658C2364.49,-291.759 2351.83,-289.816 2339.89,-288 2254.54,-275.016 2157.58,-260.517 2086.74,-249.97"/>
<polygon fill="green" stroke="green" points="2086.89,-246.454 2076.48,-248.443 2085.86,-253.378 2086.89,-246.454"/>
</g>
<!-- plymouth&#45;quit&#45;wait.service -->
<g id="node50" class="node"><title>plymouth&#45;quit&#45;wait.service</title>
<ellipse fill="none" stroke="black" cx="3063.89" cy="-234" rx="135.676" ry="18"/>
<text text-anchor="middle" x="3063.89" y="-230.3" font-family="Times,serif" font-size="14.00">plymouth&#45;quit&#45;wait.service</text>
</g>
<!-- getty@tty1.service&#45;&gt;plymouth&#45;quit&#45;wait.service -->
<g id="edge47" class="edge"><title>getty@tty1.service&#45;&gt;plymouth&#45;quit&#45;wait.service</title>
<path fill="none" stroke="green" d="M2521.05,-293.324C2533.64,-291.424 2546.63,-289.567 2558.89,-288 2718.39,-267.603 2759.03,-269.363 2918.89,-252 2931.11,-250.672 2943.92,-249.236 2956.64,-247.782"/>
<polygon fill="green" stroke="green" points="2957.27,-251.232 2966.81,-246.613 2956.47,-244.278 2957.27,-251.232"/>
</g>
<!-- rc&#45;local.service -->
<g id="node51" class="node"><title>rc&#45;local.service</title>
<ellipse fill="none" stroke="black" cx="2827.89" cy="-234" rx="81.7856" ry="18"/>
<text text-anchor="middle" x="2827.89" y="-230.3" font-family="Times,serif" font-size="14.00">rc&#45;local.service</text>
</g>
<!-- getty@tty1.service&#45;&gt;rc&#45;local.service -->
<g id="edge49" class="edge"><title>getty@tty1.service&#45;&gt;rc&#45;local.service</title>
<path fill="none" stroke="green" d="M2517.16,-292.617C2575.33,-281.901 2661.66,-265.972 2736.89,-252 2743.58,-250.758 2750.54,-249.461 2757.51,-248.163"/>
<polygon fill="green" stroke="green" points="2758.49,-251.539 2767.68,-246.265 2757.21,-244.658 2758.49,-251.539"/>
</g>
<!-- fail2ban.service -->
<g id="node31" class="node"><title>fail2ban.service</title>
<ellipse fill="none" stroke="black" cx="4202.89" cy="-378" rx="85.2851" ry="18"/>
<text text-anchor="middle" x="4202.89" y="-374.3" font-family="Times,serif" font-size="14.00">fail2ban.service</text>
</g>
<!-- firewalld.service -->
<g id="node32" class="node"><title>firewalld.service</title>
<ellipse fill="none" stroke="black" cx="4107.89" cy="-306" rx="87.9851" ry="18"/>
<text text-anchor="middle" x="4107.89" y="-302.3" font-family="Times,serif" font-size="14.00">firewalld.service</text>
</g>
<!-- fail2ban.service&#45;&gt;firewalld.service -->
<g id="edge30" class="edge"><title>fail2ban.service&#45;&gt;firewalld.service</title>
<path fill="none" stroke="green" d="M4180.37,-360.411C4167.83,-351.17 4152.04,-339.536 4138.4,-329.487"/>
<polygon fill="green" stroke="green" points="4140.37,-326.584 4130.24,-323.47 4136.21,-332.22 4140.37,-326.584"/>
</g>
<!-- iptables.service -->
<g id="node33" class="node"><title>iptables.service</title>
<ellipse fill="none" stroke="black" cx="4297.89" cy="-306" rx="84.485" ry="18"/>
<text text-anchor="middle" x="4297.89" y="-302.3" font-family="Times,serif" font-size="14.00">iptables.service</text>
</g>
<!-- fail2ban.service&#45;&gt;iptables.service -->
<g id="edge31" class="edge"><title>fail2ban.service&#45;&gt;iptables.service</title>
<path fill="none" stroke="green" d="M4225.4,-360.411C4237.94,-351.17 4253.73,-339.536 4267.37,-329.487"/>
<polygon fill="green" stroke="green" points="4269.56,-332.22 4275.53,-323.47 4265.41,-326.584 4269.56,-332.22"/>
</g>
<!-- lvm2&#45;monitor.service -->
<g id="node34" class="node"><title>lvm2&#45;monitor.service</title>
<ellipse fill="none" stroke="black" cx="4709.89" cy="-378" rx="108.581" ry="18"/>
<text text-anchor="middle" x="4709.89" y="-374.3" font-family="Times,serif" font-size="14.00">lvm2&#45;monitor.service</text>
</g>
<!-- dm&#45;event.service -->
<g id="node35" class="node"><title>dm&#45;event.service</title>
<ellipse fill="none" stroke="black" cx="4490.89" cy="-306" rx="90.9839" ry="18"/>
<text text-anchor="middle" x="4490.89" y="-302.3" font-family="Times,serif" font-size="14.00">dm&#45;event.service</text>
</g>
<!-- lvm2&#45;monitor.service&#45;&gt;dm&#45;event.service -->
<g id="edge32" class="edge"><title>lvm2&#45;monitor.service&#45;&gt;dm&#45;event.service</title>
<path fill="none" stroke="green" d="M4662.37,-361.811C4628.33,-350.932 4582.38,-336.245 4546.61,-324.812"/>
<polygon fill="green" stroke="green" points="4547.4,-321.39 4536.81,-321.68 4545.27,-328.058 4547.4,-321.39"/>
</g>
<!-- lvm2&#45;lvmetad.service -->
<g id="node36" class="node"><title>lvm2&#45;lvmetad.service</title>
<ellipse fill="none" stroke="black" cx="4709.89" cy="-306" rx="110.48" ry="18"/>
<text text-anchor="middle" x="4709.89" y="-302.3" font-family="Times,serif" font-size="14.00">lvm2&#45;lvmetad.service</text>
</g>
<!-- lvm2&#45;monitor.service&#45;&gt;lvm2&#45;lvmetad.service -->
<g id="edge33" class="edge"><title>lvm2&#45;monitor.service&#45;&gt;lvm2&#45;lvmetad.service</title>
<path fill="none" stroke="green" d="M4709.89,-359.697C4709.89,-351.983 4709.89,-342.712 4709.89,-334.112"/>
<polygon fill="green" stroke="green" points="4713.39,-334.104 4709.89,-324.104 4706.39,-334.104 4713.39,-334.104"/>
</g>
<!-- lvm2&#45;activation.service -->
<g id="node37" class="node"><title>lvm2&#45;activation.service</title>
<ellipse fill="none" stroke="black" cx="4957.89" cy="-306" rx="119.679" ry="18"/>
<text text-anchor="middle" x="4957.89" y="-302.3" font-family="Times,serif" font-size="14.00">lvm2&#45;activation.service</text>
</g>
<!-- lvm2&#45;monitor.service&#45;&gt;lvm2&#45;activation.service -->
<g id="edge34" class="edge"><title>lvm2&#45;monitor.service&#45;&gt;lvm2&#45;activation.service</title>
<path fill="none" stroke="green" d="M4762.48,-362.155C4800.97,-351.292 4853.38,-336.499 4894.23,-324.968"/>
<polygon fill="green" stroke="green" points="4895.41,-328.271 4904.08,-322.186 4893.51,-321.534 4895.41,-328.271"/>
</g>
<!-- kubelet.service -->
<g id="node38" class="node"><title>kubelet.service</title>
<ellipse fill="none" stroke="black" cx="5195.89" cy="-378" rx="82.5854" ry="18"/>
<text text-anchor="middle" x="5195.89" y="-374.3" font-family="Times,serif" font-size="14.00">kubelet.service</text>
</g>
<!-- glusterfs&#45;lo.service -->
<g id="node39" class="node"><title>glusterfs&#45;lo.service</title>
<ellipse fill="none" stroke="black" cx="5195.89" cy="-306" rx="100.182" ry="18"/>
<text text-anchor="middle" x="5195.89" y="-302.3" font-family="Times,serif" font-size="14.00">glusterfs&#45;lo.service</text>
</g>
<!-- kubelet.service&#45;&gt;glusterfs&#45;lo.service -->
<g id="edge35" class="edge"><title>kubelet.service&#45;&gt;glusterfs&#45;lo.service</title>
<path fill="none" stroke="green" d="M5195.89,-359.697C5195.89,-351.983 5195.89,-342.712 5195.89,-334.112"/>
<polygon fill="green" stroke="green" points="5199.39,-334.104 5195.89,-324.104 5192.39,-334.104 5199.39,-334.104"/>
</g>
<!-- systemd&#45;ask&#45;password&#45;wall.service -->
<g id="node40" class="node"><title>systemd&#45;ask&#45;password&#45;wall.service</title>
<ellipse fill="none" stroke="black" cx="1707.89" cy="-306" rx="174.669" ry="18"/>
<text text-anchor="middle" x="1707.89" y="-302.3" font-family="Times,serif" font-size="14.00">systemd&#45;ask&#45;password&#45;wall.service</text>
</g>
<!-- systemd&#45;ask&#45;password&#45;wall.service&#45;&gt;systemd&#45;user&#45;sessions.service -->
<g id="edge36" class="edge"><title>systemd&#45;ask&#45;password&#45;wall.service&#45;&gt;systemd&#45;user&#45;sessions.service</title>
<path fill="none" stroke="green" d="M1770.97,-289.116C1813.71,-278.353 1870.27,-264.111 1914.64,-252.939"/>
<polygon fill="green" stroke="green" points="1915.65,-256.296 1924.49,-250.46 1913.94,-249.508 1915.65,-256.296"/>
</g>
<!-- systemd&#45;user&#45;sessions.service&#45;&gt;systemd&#45;journal&#45;flush.service -->
<g id="edge54" class="edge"><title>systemd&#45;user&#45;sessions.service&#45;&gt;systemd&#45;journal&#45;flush.service</title>
<path fill="none" stroke="green" d="M1983.91,-215.697C1983.03,-207.983 1981.97,-198.712 1980.99,-190.112"/>
<polygon fill="green" stroke="green" points="1984.45,-189.642 1979.84,-180.104 1977.5,-190.437 1984.45,-189.642"/>
</g>
<!-- networking.service -->
<g id="node42" class="node"><title>networking.service</title>
<ellipse fill="none" stroke="black" cx="5442.89" cy="-378" rx="100.983" ry="18"/>
<text text-anchor="middle" x="5442.89" y="-374.3" font-family="Times,serif" font-size="14.00">networking.service</text>
</g>
<!-- systemd&#45;modules&#45;load.service -->
<g id="node43" class="node"><title>systemd&#45;modules&#45;load.service</title>
<ellipse fill="none" stroke="black" cx="5496.89" cy="-234" rx="150.574" ry="18"/>
<text text-anchor="middle" x="5496.89" y="-230.3" font-family="Times,serif" font-size="14.00">systemd&#45;modules&#45;load.service</text>
</g>
<!-- networking.service&#45;&gt;systemd&#45;modules&#45;load.service -->
<g id="edge37" class="edge"><title>networking.service&#45;&gt;systemd&#45;modules&#45;load.service</title>
<path fill="none" stroke="green" d="M5391.97,-362.458C5373.16,-354.342 5353.78,-342.098 5342.89,-324 5334.64,-310.291 5333.59,-301.025 5342.89,-288 5354.95,-271.087 5372.78,-259.517 5392.06,-251.615"/>
<polygon fill="green" stroke="green" points="5393.5,-254.816 5401.63,-248.024 5391.04,-248.262 5393.5,-254.816"/>
</g>
<!-- systemd&#45;sysctl.service -->
<g id="node44" class="node"><title>systemd&#45;sysctl.service</title>
<ellipse fill="none" stroke="black" cx="5669.89" cy="-306" rx="116.18" ry="18"/>
<text text-anchor="middle" x="5669.89" y="-302.3" font-family="Times,serif" font-size="14.00">systemd&#45;sysctl.service</text>
</g>
<!-- networking.service&#45;&gt;systemd&#45;sysctl.service -->
<g id="edge38" class="edge"><title>networking.service&#45;&gt;systemd&#45;sysctl.service</title>
<path fill="none" stroke="green" d="M5491.03,-362.155C5525.91,-351.397 5573.29,-336.787 5610.52,-325.306"/>
<polygon fill="green" stroke="green" points="5611.72,-328.599 5620.25,-322.308 5609.66,-321.91 5611.72,-328.599"/>
</g>
<!-- apparmor.service -->
<g id="node45" class="node"><title>apparmor.service</title>
<ellipse fill="none" stroke="black" cx="5443.89" cy="-306" rx="91.784" ry="18"/>
<text text-anchor="middle" x="5443.89" y="-302.3" font-family="Times,serif" font-size="14.00">apparmor.service</text>
</g>
<!-- networking.service&#45;&gt;apparmor.service -->
<g id="edge39" class="edge"><title>networking.service&#45;&gt;apparmor.service</title>
<path fill="none" stroke="green" d="M5443.13,-359.697C5443.24,-351.983 5443.38,-342.712 5443.5,-334.112"/>
<polygon fill="green" stroke="green" points="5447,-334.153 5443.64,-324.104 5440,-334.053 5447,-334.153"/>
</g>
<!-- systemd&#45;sysctl.service&#45;&gt;systemd&#45;modules&#45;load.service -->
<g id="edge53" class="edge"><title>systemd&#45;sysctl.service&#45;&gt;systemd&#45;modules&#45;load.service</title>
<path fill="none" stroke="green" d="M5630.2,-288.941C5605.41,-278.911 5573.28,-265.911 5546.78,-255.187"/>
<polygon fill="green" stroke="green" points="5547.87,-251.855 5537.29,-251.349 5545.25,-258.344 5547.87,-251.855"/>
</g>
<!-- systemd&#45;ask&#45;password&#45;console.service -->
<g id="node46" class="node"><title>systemd&#45;ask&#45;password&#45;console.service</title>
<ellipse fill="none" stroke="black" cx="2537.89" cy="-234" rx="190.366" ry="18"/>
<text text-anchor="middle" x="2537.89" y="-230.3" font-family="Times,serif" font-size="14.00">systemd&#45;ask&#45;password&#45;console.service</text>
</g>
<!-- systemd&#45;ask&#45;password&#45;console.service&#45;&gt;plymouth&#45;start.service -->
<g id="edge41" class="edge"><title>systemd&#45;ask&#45;password&#45;console.service&#45;&gt;plymouth&#45;start.service</title>
<path fill="none" stroke="green" d="M2474.11,-216.941C2430.44,-205.945 2372.6,-191.382 2328.03,-180.159"/>
<polygon fill="green" stroke="green" points="2328.71,-176.72 2318.16,-177.673 2327,-183.509 2328.71,-176.72"/>
</g>
<!-- systemd&#45;vconsole&#45;setup.service -->
<g id="node47" class="node"><title>systemd&#45;vconsole&#45;setup.service</title>
<ellipse fill="none" stroke="black" cx="2552.89" cy="-162" rx="158.672" ry="18"/>
<text text-anchor="middle" x="2552.89" y="-158.3" font-family="Times,serif" font-size="14.00">systemd&#45;vconsole&#45;setup.service</text>
</g>
<!-- systemd&#45;ask&#45;password&#45;console.service&#45;&gt;systemd&#45;vconsole&#45;setup.service -->
<g id="edge40" class="edge"><title>systemd&#45;ask&#45;password&#45;console.service&#45;&gt;systemd&#45;vconsole&#45;setup.service</title>
<path fill="none" stroke="green" d="M2541.59,-215.697C2543.25,-207.983 2545.23,-198.712 2547.08,-190.112"/>
<polygon fill="green" stroke="green" points="2550.55,-190.616 2549.22,-180.104 2543.7,-189.149 2550.55,-190.616"/>
</g>
<!-- systemd&#45;random&#45;seed.service -->
<g id="node48" class="node"><title>systemd&#45;random&#45;seed.service</title>
<ellipse fill="none" stroke="black" cx="959.887" cy="-162" rx="149.473" ry="18"/>
<text text-anchor="middle" x="959.887" y="-158.3" font-family="Times,serif" font-size="14.00">systemd&#45;random&#45;seed.service</text>
</g>
<!-- systemd&#45;random&#45;seed.service&#45;&gt;systemd&#45;remount&#45;fs.service -->
<g id="edge42" class="edge"><title>systemd&#45;random&#45;seed.service&#45;&gt;systemd&#45;remount&#45;fs.service</title>
<path fill="none" stroke="green" d="M918.388,-144.588C893.089,-134.583 860.571,-121.723 833.733,-111.108"/>
<polygon fill="green" stroke="green" points="834.712,-107.732 824.126,-107.309 832.138,-114.241 834.712,-107.732"/>
</g>
<!-- ifup@enp0s3.service -->
<g id="node49" class="node"><title>ifup@enp0s3.service</title>
<ellipse fill="none" stroke="black" cx="5669.89" cy="-378" rx="108.581" ry="18"/>
<text text-anchor="middle" x="5669.89" y="-374.3" font-family="Times,serif" font-size="14.00">ifup@enp0s3.service</text>
</g>
<!-- ifup@enp0s3.service&#45;&gt;systemd&#45;sysctl.service -->
<g id="edge45" class="edge"><title>ifup@enp0s3.service&#45;&gt;systemd&#45;sysctl.service</title>
<path fill="none" stroke="green" d="M5669.89,-359.697C5669.89,-351.983 5669.89,-342.712 5669.89,-334.112"/>
<polygon fill="green" stroke="green" points="5673.39,-334.104 5669.89,-324.104 5666.39,-334.104 5673.39,-334.104"/>
</g>
<!-- ifup@enp0s3.service&#45;&gt;apparmor.service -->
<g id="edge46" class="edge"><title>ifup@enp0s3.service&#45;&gt;apparmor.service</title>
<path fill="none" stroke="green" d="M5621.13,-361.897C5585.75,-350.94 5537.79,-336.086 5500.68,-324.592"/>
<polygon fill="green" stroke="green" points="5501.6,-321.212 5491.01,-321.596 5499.53,-327.898 5501.6,-321.212"/>
</g>
<!-- apt&#45;daily&#45;upgrade.service -->
<g id="node52" class="node"><title>apt&#45;daily&#45;upgrade.service</title>
<ellipse fill="none" stroke="black" cx="5925.89" cy="-378" rx="129.177" ry="18"/>
<text text-anchor="middle" x="5925.89" y="-374.3" font-family="Times,serif" font-size="14.00">apt&#45;daily&#45;upgrade.service</text>
</g>
<!-- apt&#45;daily.service -->
<g id="node53" class="node"><title>apt&#45;daily.service</title>
<ellipse fill="none" stroke="black" cx="5925.89" cy="-306" rx="86.3847" ry="18"/>
<text text-anchor="middle" x="5925.89" y="-302.3" font-family="Times,serif" font-size="14.00">apt&#45;daily.service</text>
</g>
<!-- apt&#45;daily&#45;upgrade.service&#45;&gt;apt&#45;daily.service -->
<g id="edge51" class="edge"><title>apt&#45;daily&#45;upgrade.service&#45;&gt;apt&#45;daily.service</title>
<path fill="none" stroke="green" d="M5925.89,-359.697C5925.89,-351.983 5925.89,-342.712 5925.89,-334.112"/>
<polygon fill="green" stroke="green" points="5929.39,-334.104 5925.89,-324.104 5922.39,-334.104 5929.39,-334.104"/>
</g>
<!-- vboxadd&#45;service.service -->
<g id="node54" class="node"><title>vboxadd&#45;service.service</title>
<ellipse fill="none" stroke="black" cx="6195.89" cy="-378" rx="122.678" ry="18"/>
<text text-anchor="middle" x="6195.89" y="-374.3" font-family="Times,serif" font-size="14.00">vboxadd&#45;service.service</text>
</g>
<!-- vboxadd.service -->
<g id="node55" class="node"><title>vboxadd.service</title>
<ellipse fill="none" stroke="black" cx="6195.89" cy="-306" rx="86.3847" ry="18"/>
<text text-anchor="middle" x="6195.89" y="-302.3" font-family="Times,serif" font-size="14.00">vboxadd.service</text>
</g>
<!-- vboxadd&#45;service.service&#45;&gt;vboxadd.service -->
<g id="edge52" class="edge"><title>vboxadd&#45;service.service&#45;&gt;vboxadd.service</title>
<path fill="none" stroke="green" d="M6195.89,-359.697C6195.89,-351.983 6195.89,-342.712 6195.89,-334.112"/>
<polygon fill="green" stroke="green" points="6199.39,-334.104 6195.89,-324.104 6192.39,-334.104 6199.39,-334.104"/>
</g>
<!-- systemd&#45;quotacheck.service -->
<g id="node56" class="node"><title>systemd&#45;quotacheck.service</title>
<ellipse fill="none" stroke="black" cx="1381.89" cy="-162" rx="143.775" ry="18"/>
<text text-anchor="middle" x="1381.89" y="-158.3" font-family="Times,serif" font-size="14.00">systemd&#45;quotacheck.service</text>
</g>
<!-- systemd&#45;quotacheck.service&#45;&gt;systemd&#45;remount&#45;fs.service -->
<g id="edge56" class="edge"><title>systemd&#45;quotacheck.service&#45;&gt;systemd&#45;remount&#45;fs.service</title>
<path fill="none" stroke="green" d="M1280.61,-149.165C1173.05,-136.595 1003.57,-116.789 892.816,-103.846"/>
<polygon fill="green" stroke="green" points="892.958,-100.339 882.619,-102.655 892.145,-107.292 892.958,-100.339"/>
</g>
<!-- systemd&#45;quotacheck.service&#45;&gt;systemd&#45;fsck@dev&#45;disk&#45;by\x2duuid&#45;b74a0064\x2d2552\x2d4d2d\x2d8eed\x2d9be58a1e7827.service -->
<g id="edge55" class="edge"><title>systemd&#45;quotacheck.service&#45;&gt;systemd&#45;fsck@dev&#45;disk&#45;by\x2duuid&#45;b74a0064\x2d2552\x2d4d2d\x2d8eed\x2d9be58a1e7827.service</title>
<path fill="none" stroke="green" d="M1387.57,-143.697C1390.13,-135.898 1393.22,-126.509 1396.07,-117.829"/>
<polygon fill="green" stroke="green" points="1399.47,-118.697 1399.27,-108.104 1392.82,-116.512 1399.47,-118.697"/>
</g>
<!-- emergency.service -->
<g id="node57" class="node"><title>emergency.service</title>
<ellipse fill="none" stroke="black" cx="2233.89" cy="-306" rx="97.4827" ry="18"/>
<text text-anchor="middle" x="2233.89" y="-302.3" font-family="Times,serif" font-size="14.00">emergency.service</text>
</g>
<!-- emergency.service&#45;&gt;rescue.service -->
<g id="edge57" class="edge"><title>emergency.service&#45;&gt;rescue.service</title>
<path fill="none" stroke="red" d="M2238.09,-287.697C2239.98,-279.898 2242.26,-270.509 2244.37,-261.829"/>
<polygon fill="red" stroke="red" points="2247.77,-262.648 2246.73,-252.104 2240.97,-260.996 2247.77,-262.648"/>
</g>
<!-- user@1000.service -->
<g id="node58" class="node"><title>user@1000.service</title>
<ellipse fill="none" stroke="black" cx="2001.89" cy="-306" rx="100.983" ry="18"/>
<text text-anchor="middle" x="2001.89" y="-302.3" font-family="Times,serif" font-size="14.00">user@1000.service</text>
</g>
<!-- user@1000.service&#45;&gt;systemd&#45;user&#45;sessions.service -->
<g id="edge58" class="edge"><title>user@1000.service&#45;&gt;systemd&#45;user&#45;sessions.service</title>
<path fill="none" stroke="green" d="M1997.93,-287.697C1996.17,-279.983 1994.05,-270.712 1992.08,-262.112"/>
<polygon fill="green" stroke="green" points="1995.44,-261.073 1989.8,-252.104 1988.61,-262.633 1995.44,-261.073"/>
</g>
<!-- docker.service -->
<g id="node59" class="node"><title>docker.service</title>
<ellipse fill="none" stroke="black" cx="3917.89" cy="-378" rx="78.7863" ry="18"/>
<text text-anchor="middle" x="3917.89" y="-374.3" font-family="Times,serif" font-size="14.00">docker.service</text>
</g>
<!-- docker.service&#45;&gt;flanneld.service -->
<g id="edge59" class="edge"><title>docker.service&#45;&gt;flanneld.service</title>
<path fill="none" stroke="green" d="M3911.97,-359.697C3911.18,-351.983 3910.95,-342.712 3911.29,-334.112"/>
<polygon fill="green" stroke="green" points="3914.79,-334.324 3911.99,-324.104 3907.8,-333.836 3914.79,-334.324"/>
</g>
<!-- docker.service&#45;&gt;flanneld.service -->
<g id="edge61" class="edge"><title>docker.service&#45;&gt;flanneld.service</title>
<path fill="none" stroke="black" d="M3923.8,-359.697C3924.6,-351.983 3924.82,-342.712 3924.48,-334.112"/>
<polygon fill="black" stroke="black" points="3927.97,-333.836 3923.78,-324.104 3920.99,-334.324 3927.97,-333.836"/>
</g>
<!-- docker.service&#45;&gt;firewalld.service -->
<g id="edge60" class="edge"><title>docker.service&#45;&gt;firewalld.service</title>
<path fill="none" stroke="green" d="M3957.72,-362.326C3986.81,-351.608 4026.46,-336.998 4057.72,-325.484"/>
<polygon fill="green" stroke="green" points="4058.95,-328.758 4067.13,-322.017 4056.53,-322.19 4058.95,-328.758"/>
</g>
<!-- ssh.service -->
<g id="node60" class="node"><title>ssh.service</title>
<ellipse fill="none" stroke="black" cx="1449.89" cy="-306" rx="63.0888" ry="18"/>
<text text-anchor="middle" x="1449.89" y="-302.3" font-family="Times,serif" font-size="14.00">ssh.service</text>
</g>
<!-- ssh.service&#45;&gt;auditd.service -->
<g id="edge62" class="edge"><title>ssh.service&#45;&gt;auditd.service</title>
<path fill="none" stroke="green" d="M1427.62,-288.765C1414.87,-279.467 1398.68,-267.66 1384.72,-257.481"/>
<polygon fill="green" stroke="green" points="1386.51,-254.454 1376.36,-251.39 1382.38,-260.11 1386.51,-254.454"/>
</g>
<!-- rpcbind.service -->
<g id="node61" class="node"><title>rpcbind.service</title>
<ellipse fill="none" stroke="black" cx="969.887" cy="-306" rx="83.3857" ry="18"/>
<text text-anchor="middle" x="969.887" y="-302.3" font-family="Times,serif" font-size="14.00">rpcbind.service</text>
</g>
<!-- rpcbind.service&#45;&gt;systemd&#45;tmpfiles&#45;setup.service -->
<g id="edge64" class="edge"><title>rpcbind.service&#45;&gt;systemd&#45;tmpfiles&#45;setup.service</title>
<path fill="none" stroke="green" d="M969.887,-287.697C969.887,-279.983 969.887,-270.712 969.887,-262.112"/>
<polygon fill="green" stroke="green" points="973.387,-262.104 969.887,-252.104 966.387,-262.104 973.387,-262.104"/>
</g>
</g>
</svg>
