<?xml version="1.0" encoding="UTF-8" standalone="no"?>
<!DOCTYPE svg PUBLIC "-//W3C//DTD SVG 1.1//EN"
 "http://www.w3.org/Graphics/SVG/1.1/DTD/svg11.dtd">
<!-- Generated by graphviz version 2.38.0 (20140413.2041)
 -->
<!-- Title: systemd Pages: 1 -->
<svg width="2102pt" height="476pt"
 viewBox="0.00 0.00 2101.54 476.00" xmlns="http://www.w3.org/2000/svg" xmlns:xlink="http://www.w3.org/1999/xlink">
<g id="graph0" class="graph" transform="scale(1 1) rotate(0) translate(4 472)">
<title>systemd</title>
<polygon fill="white" stroke="none" points="-4,4 -4,-472 2097.54,-472 2097.54,4 -4,4"/>
<!-- multi&#45;user.target -->
<g id="node1" class="node"><title>multi&#45;user.target</title>
<ellipse fill="none" stroke="black" cx="1511.44" cy="-378" rx="89.0842" ry="18"/>
<text text-anchor="middle" x="1511.44" y="-374.3" font-family="Times,serif" font-size="14.00">multi&#45;user.target</text>
</g>
<!-- rescue.target -->
<g id="node2" class="node"><title>rescue.target</title>
<ellipse fill="none" stroke="black" cx="1353.44" cy="-306" rx="73.387" ry="18"/>
<text text-anchor="middle" x="1353.44" y="-302.3" font-family="Times,serif" font-size="14.00">rescue.target</text>
</g>
<!-- multi&#45;user.target&#45;&gt;rescue.target -->
<g id="edge1" class="edge"><title>multi&#45;user.target&#45;&gt;rescue.target</title>
<path fill="none" stroke="green" d="M1471.48,-361.811C1447.07,-351.552 1416.12,-337.907 1391.98,-326.798"/>
<polygon fill="green" stroke="green" points="1393.3,-323.554 1382.76,-322.522 1390.36,-329.905 1393.3,-323.554"/>
</g>
<!-- multi&#45;user.target&#45;&gt;rescue.target -->
<g id="edge7" class="edge"><title>multi&#45;user.target&#45;&gt;rescue.target</title>
<path fill="none" stroke="red" d="M1480.97,-360.941C1458.24,-350.336 1426.89,-336.411 1400.91,-325.366"/>
<polygon fill="red" stroke="red" points="1402.19,-322.104 1391.61,-321.438 1399.46,-328.552 1402.19,-322.104"/>
</g>
<!-- basic.target -->
<g id="node3" class="node"><title>basic.target</title>
<ellipse fill="none" stroke="black" cx="1511.44" cy="-306" rx="66.8882" ry="18"/>
<text text-anchor="middle" x="1511.44" y="-302.3" font-family="Times,serif" font-size="14.00">basic.target</text>
</g>
<!-- multi&#45;user.target&#45;&gt;basic.target -->
<g id="edge2" class="edge"><title>multi&#45;user.target&#45;&gt;basic.target</title>
<path fill="none" stroke="green" d="M1505.52,-359.697C1504.73,-351.983 1504.5,-342.712 1504.84,-334.112"/>
<polygon fill="green" stroke="green" points="1508.34,-334.324 1505.54,-324.104 1501.36,-333.836 1508.34,-334.324"/>
</g>
<!-- multi&#45;user.target&#45;&gt;basic.target -->
<g id="edge4" class="edge"><title>multi&#45;user.target&#45;&gt;basic.target</title>
<path fill="none" stroke="black" d="M1517.36,-359.697C1518.15,-351.983 1518.38,-342.712 1518.04,-334.112"/>
<polygon fill="black" stroke="black" points="1521.52,-333.836 1517.34,-324.104 1514.54,-334.324 1521.52,-333.836"/>
</g>
<!-- getty.target -->
<g id="node4" class="node"><title>getty.target</title>
<ellipse fill="none" stroke="black" cx="1662.44" cy="-306" rx="65.7887" ry="18"/>
<text text-anchor="middle" x="1662.44" y="-302.3" font-family="Times,serif" font-size="14.00">getty.target</text>
</g>
<!-- multi&#45;user.target&#45;&gt;getty.target -->
<g id="edge3" class="edge"><title>multi&#45;user.target&#45;&gt;getty.target</title>
<path fill="none" stroke="green" d="M1540.3,-360.941C1562.1,-350.275 1592.27,-336.251 1617.23,-325.176"/>
<polygon fill="green" stroke="green" points="1618.77,-328.322 1626.51,-321.089 1615.95,-321.916 1618.77,-328.322"/>
</g>
<!-- multi&#45;user.target&#45;&gt;getty.target -->
<g id="edge5" class="edge"><title>multi&#45;user.target&#45;&gt;getty.target</title>
<path fill="none" stroke="#a8a8a8" d="M1550.28,-361.638C1573.48,-351.451 1602.68,-337.982 1625.53,-326.966"/>
<polygon fill="#a8a8a8" stroke="#a8a8a8" points="1627.12,-330.087 1634.58,-322.568 1624.06,-323.792 1627.12,-330.087"/>
</g>
<!-- remote&#45;fs.target -->
<g id="node5" class="node"><title>remote&#45;fs.target</title>
<ellipse fill="none" stroke="black" cx="1922.44" cy="-162" rx="87.1846" ry="18"/>
<text text-anchor="middle" x="1922.44" y="-158.3" font-family="Times,serif" font-size="14.00">remote&#45;fs.target</text>
</g>
<!-- multi&#45;user.target&#45;&gt;remote&#45;fs.target -->
<g id="edge6" class="edge"><title>multi&#45;user.target&#45;&gt;remote&#45;fs.target</title>
<path fill="none" stroke="#a8a8a8" d="M1583.54,-367.278C1696.5,-350.366 1906.78,-311.541 1949.44,-252 1963,-233.077 1952.72,-207.241 1941.16,-188.28"/>
<polygon fill="#a8a8a8" stroke="#a8a8a8" points="1944.05,-186.308 1935.66,-179.844 1938.19,-190.132 1944.05,-186.308"/>
</g>
<!-- shutdown.target -->
<g id="node6" class="node"><title>shutdown.target</title>
<ellipse fill="none" stroke="black" cx="1298.44" cy="-18" rx="87.9851" ry="18"/>
<text text-anchor="middle" x="1298.44" y="-14.3" font-family="Times,serif" font-size="14.00">shutdown.target</text>
</g>
<!-- multi&#45;user.target&#45;&gt;shutdown.target -->
<g id="edge8" class="edge"><title>multi&#45;user.target&#45;&gt;shutdown.target</title>
<path fill="none" stroke="red" d="M1596.14,-372.403C1749.04,-361.77 2055.44,-328.766 2055.44,-235 2055.44,-235 2055.44,-235 2055.44,-161 2055.44,-120.553 2066.95,-98.5507 2036.44,-72 1989.22,-30.9111 1586.08,-21.6667 1396.38,-19.5944"/>
<polygon fill="red" stroke="red" points="1396.17,-16.0921 1386.13,-19.4872 1396.09,-23.0917 1396.17,-16.0921"/>
</g>
<!-- rescue.target&#45;&gt;shutdown.target -->
<g id="edge58" class="edge"><title>rescue.target&#45;&gt;shutdown.target</title>
<path fill="none" stroke="red" d="M1284.11,-299.958C1149.77,-288.565 862.144,-255.701 804.44,-180 794.74,-167.275 793.812,-155.96 804.44,-144 849.626,-93.1474 1047.89,-139.012 1108.44,-108 1127.76,-98.1051 1123.25,-83.8442 1141.44,-72 1167.96,-54.7275 1200.69,-42.5119 1229.39,-34.197"/>
<polygon fill="red" stroke="red" points="1230.66,-37.4753 1239.35,-31.4167 1228.78,-30.7328 1230.66,-37.4753"/>
</g>
<!-- sysinit.target -->
<g id="node10" class="node"><title>sysinit.target</title>
<ellipse fill="none" stroke="black" cx="1148.44" cy="-234" rx="73.387" ry="18"/>
<text text-anchor="middle" x="1148.44" y="-230.3" font-family="Times,serif" font-size="14.00">sysinit.target</text>
</g>
<!-- rescue.target&#45;&gt;sysinit.target -->
<g id="edge56" class="edge"><title>rescue.target&#45;&gt;sysinit.target</title>
<path fill="none" stroke="green" d="M1308.96,-291.669C1275.38,-280.729 1229.53,-265.134 1195.37,-253.072"/>
<polygon fill="green" stroke="green" points="1196.22,-249.658 1185.62,-249.611 1193.88,-256.254 1196.22,-249.658"/>
</g>
<!-- rescue.target&#45;&gt;sysinit.target -->
<g id="edge57" class="edge"><title>rescue.target&#45;&gt;sysinit.target</title>
<path fill="none" stroke="black" d="M1316.08,-290.326C1284.35,-279.002 1238.55,-263.335 1202.78,-251.563"/>
<polygon fill="black" stroke="black" points="1203.58,-248.14 1192.98,-248.353 1201.4,-254.792 1203.58,-248.14"/>
</g>
<!-- basic.target&#45;&gt;shutdown.target -->
<g id="edge20" class="edge"><title>basic.target&#45;&gt;shutdown.target</title>
<path fill="none" stroke="red" d="M1461.58,-293.789C1452.87,-291.847 1443.89,-289.856 1435.44,-288 1356.49,-270.662 1215.14,-276.762 1268.44,-216 1349.44,-123.666 1461.44,-272.334 1542.44,-180 1574.09,-143.916 1572.56,-109.37 1542.44,-72 1523.05,-47.9431 1449.58,-34.2436 1388.29,-26.8263"/>
<polygon fill="red" stroke="red" points="1388.51,-23.329 1378.17,-25.6452 1387.7,-30.2817 1388.51,-23.329"/>
</g>
<!-- slices.target -->
<g id="node9" class="node"><title>slices.target</title>
<ellipse fill="none" stroke="black" cx="1346.44" cy="-234" rx="68.7879" ry="18"/>
<text text-anchor="middle" x="1346.44" y="-230.3" font-family="Times,serif" font-size="14.00">slices.target</text>
</g>
<!-- basic.target&#45;&gt;slices.target -->
<g id="edge11" class="edge"><title>basic.target&#45;&gt;slices.target</title>
<path fill="none" stroke="green" d="M1473.34,-291.17C1447.16,-280.666 1412.59,-266.088 1386.09,-254.415"/>
<polygon fill="green" stroke="green" points="1387.28,-251.115 1376.72,-250.259 1384.44,-257.514 1387.28,-251.115"/>
</g>
<!-- basic.target&#45;&gt;slices.target -->
<g id="edge16" class="edge"><title>basic.target&#45;&gt;slices.target</title>
<path fill="none" stroke="#a8a8a8" d="M1481.32,-289.811C1457.03,-278.948 1422.58,-264.289 1394.52,-252.865"/>
<polygon fill="#a8a8a8" stroke="#a8a8a8" points="1395.47,-249.474 1384.89,-248.97 1392.85,-255.964 1395.47,-249.474"/>
</g>
<!-- basic.target&#45;&gt;sysinit.target -->
<g id="edge12" class="edge"><title>basic.target&#45;&gt;sysinit.target</title>
<path fill="none" stroke="green" d="M1458.56,-294.798C1447.87,-292.479 1436.78,-290.086 1426.44,-288 1337.91,-270.138 1315.21,-268.661 1226.44,-252 1221.05,-250.989 1215.48,-249.93 1209.9,-248.856"/>
<polygon fill="green" stroke="green" points="1210.38,-245.383 1199.89,-246.913 1209.04,-252.254 1210.38,-245.383"/>
</g>
<!-- basic.target&#45;&gt;sysinit.target -->
<g id="edge15" class="edge"><title>basic.target&#45;&gt;sysinit.target</title>
<path fill="none" stroke="black" d="M1466.44,-292.647C1459.12,-291.035 1451.6,-289.444 1444.44,-288 1355.91,-270.138 1333.21,-268.661 1244.44,-252 1235.66,-250.353 1226.4,-248.579 1217.21,-246.821"/>
<polygon fill="black" stroke="black" points="1217.78,-243.366 1207.3,-244.926 1216.46,-250.242 1217.78,-243.366"/>
</g>
<!-- sockets.target -->
<g id="node11" class="node"><title>sockets.target</title>
<ellipse fill="none" stroke="black" cx="1511.44" cy="-234" rx="77.9862" ry="18"/>
<text text-anchor="middle" x="1511.44" y="-230.3" font-family="Times,serif" font-size="14.00">sockets.target</text>
</g>
<!-- basic.target&#45;&gt;sockets.target -->
<g id="edge13" class="edge"><title>basic.target&#45;&gt;sockets.target</title>
<path fill="none" stroke="green" d="M1505.56,-288.055C1504.74,-280.346 1504.5,-271.027 1504.83,-262.364"/>
<polygon fill="green" stroke="green" points="1508.33,-262.491 1505.53,-252.275 1501.35,-262.012 1508.33,-262.491"/>
</g>
<!-- basic.target&#45;&gt;sockets.target -->
<g id="edge18" class="edge"><title>basic.target&#45;&gt;sockets.target</title>
<path fill="none" stroke="#a8a8a8" d="M1517.32,-288.055C1518.14,-280.346 1518.38,-271.027 1518.05,-262.364"/>
<polygon fill="#a8a8a8" stroke="#a8a8a8" points="1521.53,-262.012 1517.35,-252.275 1514.55,-262.491 1521.53,-262.012"/>
</g>
<!-- paths.target -->
<g id="node12" class="node"><title>paths.target</title>
<ellipse fill="none" stroke="black" cx="1675.44" cy="-234" rx="68.4888" ry="18"/>
<text text-anchor="middle" x="1675.44" y="-230.3" font-family="Times,serif" font-size="14.00">paths.target</text>
</g>
<!-- basic.target&#45;&gt;paths.target -->
<g id="edge14" class="edge"><title>basic.target&#45;&gt;paths.target</title>
<path fill="none" stroke="green" d="M1541.35,-289.811C1565.47,-278.948 1599.72,-264.289 1627.61,-252.865"/>
<polygon fill="green" stroke="green" points="1629.24,-255.98 1637.19,-248.97 1626.61,-249.496 1629.24,-255.98"/>
</g>
<!-- basic.target&#45;&gt;paths.target -->
<g id="edge19" class="edge"><title>basic.target&#45;&gt;paths.target</title>
<path fill="none" stroke="#a8a8a8" d="M1549.76,-291.003C1575.81,-280.485 1610.05,-265.951 1636.27,-254.325"/>
<polygon fill="#a8a8a8" stroke="#a8a8a8" points="1637.84,-257.46 1645.54,-250.186 1634.98,-251.069 1637.84,-257.46"/>
</g>
<!-- timers.target -->
<g id="node13" class="node"><title>timers.target</title>
<ellipse fill="none" stroke="black" cx="1834.44" cy="-234" rx="72.5877" ry="18"/>
<text text-anchor="middle" x="1834.44" y="-230.3" font-family="Times,serif" font-size="14.00">timers.target</text>
</g>
<!-- basic.target&#45;&gt;timers.target -->
<g id="edge17" class="edge"><title>basic.target&#45;&gt;timers.target</title>
<path fill="none" stroke="#a8a8a8" d="M1561.3,-293.782C1570.01,-291.841 1578.99,-289.852 1587.44,-288 1649.76,-274.343 1721.02,-259.092 1770.93,-248.47"/>
<polygon fill="#a8a8a8" stroke="#a8a8a8" points="1771.88,-251.846 1780.93,-246.342 1770.42,-244.999 1771.88,-251.846"/>
</g>
<!-- getty.target&#45;&gt;shutdown.target -->
<g id="edge28" class="edge"><title>getty.target&#45;&gt;shutdown.target</title>
<path fill="none" stroke="red" d="M1719.51,-296.942C1790.53,-286.335 1904.04,-267.249 1916.44,-252 1926.53,-239.584 1925.41,-229.249 1916.44,-216 1892.29,-180.326 1863.66,-201.691 1826.44,-180 1760.05,-141.314 1762.08,-102.233 1691.44,-72 1638.81,-49.4772 1488.74,-33.8519 1390.01,-25.6665"/>
<polygon fill="red" stroke="red" points="1390.28,-22.1768 1380.03,-24.8495 1389.71,-29.1535 1390.28,-22.1768"/>
</g>
<!-- remote&#45;fs.target&#45;&gt;shutdown.target -->
<g id="edge23" class="edge"><title>remote&#45;fs.target&#45;&gt;shutdown.target</title>
<path fill="none" stroke="red" d="M1883.39,-145.849C1860.74,-136.338 1832.11,-123.043 1808.44,-108 1787.4,-94.6318 1788.35,-81.8211 1765.44,-72 1700.58,-44.1953 1510.2,-29.7689 1393.5,-23.3353"/>
<polygon fill="red" stroke="red" points="1393.67,-19.8392 1383.49,-22.793 1393.29,-26.8289 1393.67,-19.8392"/>
</g>
<!-- remote&#45;fs&#45;pre.target -->
<g id="node15" class="node"><title>remote&#45;fs&#45;pre.target</title>
<ellipse fill="none" stroke="black" cx="1922.44" cy="-90" rx="105.082" ry="18"/>
<text text-anchor="middle" x="1922.44" y="-86.3" font-family="Times,serif" font-size="14.00">remote&#45;fs&#45;pre.target</text>
</g>
<!-- remote&#45;fs.target&#45;&gt;remote&#45;fs&#45;pre.target -->
<g id="edge22" class="edge"><title>remote&#45;fs.target&#45;&gt;remote&#45;fs&#45;pre.target</title>
<path fill="none" stroke="green" d="M1922.44,-143.697C1922.44,-135.983 1922.44,-126.712 1922.44,-118.112"/>
<polygon fill="green" stroke="green" points="1925.94,-118.104 1922.44,-108.104 1918.94,-118.104 1925.94,-118.104"/>
</g>
<!-- emergency.target -->
<g id="node7" class="node"><title>emergency.target</title>
<ellipse fill="none" stroke="black" cx="917.44" cy="-162" rx="92.8835" ry="18"/>
<text text-anchor="middle" x="917.44" y="-158.3" font-family="Times,serif" font-size="14.00">emergency.target</text>
</g>
<!-- emergency.target&#45;&gt;shutdown.target -->
<g id="edge9" class="edge"><title>emergency.target&#45;&gt;shutdown.target</title>
<path fill="none" stroke="red" d="M984.51,-149.417C1056.31,-136.704 1162.27,-116.916 1179.44,-108 1200.09,-97.2779 1199.19,-86.4267 1217.44,-72 1231.52,-60.8671 1247.96,-49.7964 1262.33,-40.6747"/>
<polygon fill="red" stroke="red" points="1264.35,-43.5372 1270.97,-35.2638 1260.64,-37.6042 1264.35,-43.5372"/>
</g>
<!-- network&#45;pre.target -->
<g id="node8" class="node"><title>network&#45;pre.target</title>
<ellipse fill="none" stroke="black" cx="223.44" cy="-90" rx="99.3824" ry="18"/>
<text text-anchor="middle" x="223.44" y="-86.3" font-family="Times,serif" font-size="14.00">network&#45;pre.target</text>
</g>
<!-- network&#45;pre.target&#45;&gt;shutdown.target -->
<g id="edge10" class="edge"><title>network&#45;pre.target&#45;&gt;shutdown.target</title>
<path fill="none" stroke="red" d="M292.729,-77.0291C305.569,-75.1138 318.888,-73.3284 331.44,-72 648.653,-38.4285 1026.79,-25.5076 1201.34,-21.0673"/>
<polygon fill="red" stroke="red" points="1201.61,-24.5616 1211.52,-20.812 1201.44,-17.5638 1201.61,-24.5616"/>
</g>
<!-- slices.target&#45;&gt;shutdown.target -->
<g id="edge24" class="edge"><title>slices.target&#45;&gt;shutdown.target</title>
<path fill="none" stroke="red" d="M1396.87,-221.732C1463.87,-206.706 1574.03,-181.777 1575.44,-180 1605.31,-142.427 1606.03,-108.993 1575.44,-72 1552.36,-44.0812 1463.41,-30.73 1392.46,-24.4335"/>
<polygon fill="red" stroke="red" points="1392.39,-20.9152 1382.13,-23.5548 1391.79,-27.89 1392.39,-20.9152"/>
</g>
<!-- sysinit.target&#45;&gt;shutdown.target -->
<g id="edge43" class="edge"><title>sysinit.target&#45;&gt;shutdown.target</title>
<path fill="none" stroke="red" d="M1075.35,-232.008C987.613,-229.087 848.169,-218.35 815.44,-180 805.053,-167.83 804.765,-155.918 815.44,-144 864.067,-89.7078 1075.32,-138.66 1141.44,-108 1162.55,-98.2134 1160.09,-84.9181 1179.44,-72 1200.08,-58.2165 1224.9,-46.5097 1246.52,-37.6325"/>
<polygon fill="red" stroke="red" points="1247.9,-40.8492 1255.88,-33.8799 1245.3,-34.3517 1247.9,-40.8492"/>
</g>
<!-- sysinit.target&#45;&gt;emergency.target -->
<g id="edge38" class="edge"><title>sysinit.target&#45;&gt;emergency.target</title>
<path fill="none" stroke="green" d="M1100.99,-220.242C1063.14,-209.264 1010.24,-193.299 970.91,-181.017"/>
<polygon fill="green" stroke="green" points="971.809,-177.631 961.22,-177.98 969.715,-184.311 971.809,-177.631"/>
</g>
<!-- sysinit.target&#45;&gt;emergency.target -->
<g id="edge42" class="edge"><title>sysinit.target&#45;&gt;emergency.target</title>
<path fill="none" stroke="red" d="M1107.78,-219.003C1072.06,-207.724 1019.72,-191.827 978.916,-179.851"/>
<polygon fill="red" stroke="red" points="979.655,-176.42 969.074,-176.973 977.69,-183.139 979.655,-176.42"/>
</g>
<!-- cryptsetup.target -->
<g id="node21" class="node"><title>cryptsetup.target</title>
<ellipse fill="none" stroke="black" cx="1121.44" cy="-162" rx="92.8835" ry="18"/>
<text text-anchor="middle" x="1121.44" y="-158.3" font-family="Times,serif" font-size="14.00">cryptsetup.target</text>
</g>
<!-- sysinit.target&#45;&gt;cryptsetup.target -->
<g id="edge37" class="edge"><title>sysinit.target&#45;&gt;cryptsetup.target</title>
<path fill="none" stroke="green" d="M1136.03,-216.055C1132.19,-208.261 1128.31,-198.822 1125.29,-190.079"/>
<polygon fill="green" stroke="green" points="1128.54,-188.755 1122.19,-180.275 1121.87,-190.865 1128.54,-188.755"/>
</g>
<!-- sysinit.target&#45;&gt;cryptsetup.target -->
<g id="edge40" class="edge"><title>sysinit.target&#45;&gt;cryptsetup.target</title>
<path fill="none" stroke="#a8a8a8" d="M1147.68,-215.697C1145.43,-207.728 1141.93,-198.1 1138.13,-189.264"/>
<polygon fill="#a8a8a8" stroke="#a8a8a8" points="1141.28,-187.737 1133.93,-180.104 1134.92,-190.653 1141.28,-187.737"/>
</g>
<!-- swap.target -->
<g id="node22" class="node"><title>swap.target</title>
<ellipse fill="none" stroke="black" cx="1298.44" cy="-162" rx="66.0889" ry="18"/>
<text text-anchor="middle" x="1298.44" y="-158.3" font-family="Times,serif" font-size="14.00">swap.target</text>
</g>
<!-- sysinit.target&#45;&gt;swap.target -->
<g id="edge35" class="edge"><title>sysinit.target&#45;&gt;swap.target</title>
<path fill="none" stroke="green" d="M1176.36,-217.291C1197.94,-206.639 1228.1,-192.521 1253.09,-181.352"/>
<polygon fill="green" stroke="green" points="1254.67,-184.483 1262.39,-177.229 1251.83,-178.084 1254.67,-184.483"/>
</g>
<!-- sysinit.target&#45;&gt;swap.target -->
<g id="edge41" class="edge"><title>sysinit.target&#45;&gt;swap.target</title>
<path fill="none" stroke="#a8a8a8" d="M1185.5,-218.326C1208.69,-208.107 1238.35,-194.352 1261.52,-183.113"/>
<polygon fill="#a8a8a8" stroke="#a8a8a8" points="1263.24,-186.166 1270.68,-178.627 1260.16,-179.878 1263.24,-186.166"/>
</g>
<!-- local&#45;fs.target -->
<g id="node23" class="node"><title>local&#45;fs.target</title>
<ellipse fill="none" stroke="black" cx="1458.44" cy="-162" rx="75.2868" ry="18"/>
<text text-anchor="middle" x="1458.44" y="-158.3" font-family="Times,serif" font-size="14.00">local&#45;fs.target</text>
</g>
<!-- sysinit.target&#45;&gt;local&#45;fs.target -->
<g id="edge36" class="edge"><title>sysinit.target&#45;&gt;local&#45;fs.target</title>
<path fill="none" stroke="green" d="M1197.86,-220.647C1250.85,-208.254 1335.07,-189.224 1393.4,-176.455"/>
<polygon fill="green" stroke="green" points="1394.23,-179.857 1403.25,-174.304 1392.74,-173.018 1394.23,-179.857"/>
</g>
<!-- sysinit.target&#45;&gt;local&#45;fs.target -->
<g id="edge39" class="edge"><title>sysinit.target&#45;&gt;local&#45;fs.target</title>
<path fill="none" stroke="#a8a8a8" d="M1203.01,-221.831C1257.82,-209.906 1341.94,-190.951 1398.56,-177.793"/>
<polygon fill="#a8a8a8" stroke="#a8a8a8" points="1399.5,-181.166 1408.45,-175.488 1397.91,-174.349 1399.5,-181.166"/>
</g>
<!-- sockets.target&#45;&gt;shutdown.target -->
<g id="edge32" class="edge"><title>sockets.target&#45;&gt;shutdown.target</title>
<path fill="none" stroke="red" d="M1552.82,-218.663C1570.43,-210.287 1589.23,-197.786 1599.44,-180 1623.35,-138.374 1631.31,-108.759 1600.44,-72 1574.39,-40.985 1472.61,-28.1151 1394.33,-22.7774"/>
<polygon fill="red" stroke="red" points="1394.14,-19.258 1383.94,-22.103 1393.69,-26.2433 1394.14,-19.258"/>
</g>
<!-- paths.target&#45;&gt;shutdown.target -->
<g id="edge34" class="edge"><title>paths.target&#45;&gt;shutdown.target</title>
<path fill="none" stroke="red" d="M1675.49,-215.788C1674.58,-182.472 1667.48,-109.189 1624.44,-72 1590.56,-42.7299 1476.72,-29.4482 1393.07,-23.5404"/>
<polygon fill="red" stroke="red" points="1393.24,-20.044 1383.03,-22.8559 1392.77,-27.0278 1393.24,-20.044"/>
</g>
<!-- timers.target&#45;&gt;shutdown.target -->
<g id="edge27" class="edge"><title>timers.target&#45;&gt;shutdown.target</title>
<path fill="none" stroke="red" d="M1811.9,-216.645C1798.18,-206.458 1780.46,-192.882 1765.44,-180 1712.71,-134.775 1714.82,-102.573 1652.44,-72 1607.37,-49.9127 1478.25,-34.598 1389.08,-26.3026"/>
<polygon fill="red" stroke="red" points="1389.23,-22.8021 1378.95,-25.3748 1388.59,-29.7729 1389.23,-22.8021"/>
</g>
<!-- local&#45;fs&#45;pre.target -->
<g id="node14" class="node"><title>local&#45;fs&#45;pre.target</title>
<ellipse fill="none" stroke="black" cx="1439.44" cy="-90" rx="94.4839" ry="18"/>
<text text-anchor="middle" x="1439.44" y="-86.3" font-family="Times,serif" font-size="14.00">local&#45;fs&#45;pre.target</text>
</g>
<!-- local&#45;fs&#45;pre.target&#45;&gt;shutdown.target -->
<g id="edge21" class="edge"><title>local&#45;fs&#45;pre.target&#45;&gt;shutdown.target</title>
<path fill="none" stroke="red" d="M1407.09,-72.9406C1387.12,-63.0252 1361.3,-50.2077 1339.84,-39.5552"/>
<polygon fill="red" stroke="red" points="1341.15,-36.2965 1330.64,-34.9847 1338.04,-42.5664 1341.15,-36.2965"/>
</g>
<!-- remote&#45;fs&#45;pre.target&#45;&gt;shutdown.target -->
<g id="edge44" class="edge"><title>remote&#45;fs&#45;pre.target&#45;&gt;shutdown.target</title>
<path fill="none" stroke="red" d="M1845.68,-77.6051C1831.64,-75.6431 1817.11,-73.6931 1803.44,-72 1657.54,-53.9284 1487.41,-36.9096 1386.55,-27.2414"/>
<polygon fill="red" stroke="red" points="1386.69,-23.7393 1376.4,-26.2715 1386.03,-30.7075 1386.69,-23.7393"/>
</g>
<!-- rpcbind.target -->
<g id="node16" class="node"><title>rpcbind.target</title>
<ellipse fill="none" stroke="black" cx="419.44" cy="-90" rx="78.7863" ry="18"/>
<text text-anchor="middle" x="419.44" y="-86.3" font-family="Times,serif" font-size="14.00">rpcbind.target</text>
</g>
<!-- rpcbind.target&#45;&gt;shutdown.target -->
<g id="edge25" class="edge"><title>rpcbind.target&#45;&gt;shutdown.target</title>
<path fill="none" stroke="red" d="M474.963,-77.0678C485.384,-75.1366 496.216,-73.3356 506.44,-72 755.896,-39.4134 1052.32,-26.3506 1201.88,-21.5375"/>
<polygon fill="red" stroke="red" points="1202.07,-25.0334 1211.95,-21.2187 1201.85,-18.0369 1202.07,-25.0334"/>
</g>
<!-- time&#45;sync.target -->
<g id="node17" class="node"><title>time&#45;sync.target</title>
<ellipse fill="none" stroke="black" cx="603.44" cy="-90" rx="87.9851" ry="18"/>
<text text-anchor="middle" x="603.44" y="-86.3" font-family="Times,serif" font-size="14.00">time&#45;sync.target</text>
</g>
<!-- time&#45;sync.target&#45;&gt;shutdown.target -->
<g id="edge26" class="edge"><title>time&#45;sync.target&#45;&gt;shutdown.target</title>
<path fill="none" stroke="red" d="M665.675,-77.2858C677.207,-75.345 689.168,-73.4845 700.44,-72 878.413,-48.5609 1087.58,-32.6711 1205.42,-24.7818"/>
<polygon fill="red" stroke="red" points="1205.74,-28.2682 1215.49,-24.1124 1205.28,-21.2837 1205.74,-28.2682"/>
</g>
<!-- sound.target -->
<g id="node18" class="node"><title>sound.target</title>
<ellipse fill="none" stroke="black" cx="779.44" cy="-90" rx="70.3881" ry="18"/>
<text text-anchor="middle" x="779.44" y="-86.3" font-family="Times,serif" font-size="14.00">sound.target</text>
</g>
<!-- sound.target&#45;&gt;shutdown.target -->
<g id="edge29" class="edge"><title>sound.target&#45;&gt;shutdown.target</title>
<path fill="none" stroke="red" d="M829.88,-77.4223C839.34,-75.4567 849.17,-73.5524 858.44,-72 979.734,-51.6886 1121.09,-36.0793 1210.18,-27.2187"/>
<polygon fill="red" stroke="red" points="1210.63,-30.6908 1220.24,-26.2244 1209.94,-23.7248 1210.63,-30.6908"/>
</g>
<!-- network&#45;online.target -->
<g id="node19" class="node"><title>network&#45;online.target</title>
<ellipse fill="none" stroke="black" cx="112.44" cy="-234" rx="112.38" ry="18"/>
<text text-anchor="middle" x="112.44" y="-230.3" font-family="Times,serif" font-size="14.00">network&#45;online.target</text>
</g>
<!-- network&#45;online.target&#45;&gt;shutdown.target -->
<g id="edge31" class="edge"><title>network&#45;online.target&#45;&gt;shutdown.target</title>
<path fill="none" stroke="red" d="M97.2575,-215.703C89.7083,-205.939 81.3737,-193.095 77.44,-180 63.2057,-132.615 64.4084,-101.077 104.44,-72 148.515,-39.9858 923.953,-24.8279 1201.03,-20.4163"/>
<polygon fill="red" stroke="red" points="1201.12,-23.9153 1211.07,-20.2577 1201.01,-16.9162 1201.12,-23.9153"/>
</g>
<!-- network.target -->
<g id="node20" class="node"><title>network.target</title>
<ellipse fill="none" stroke="black" cx="167.44" cy="-162" rx="81.4863" ry="18"/>
<text text-anchor="middle" x="167.44" y="-158.3" font-family="Times,serif" font-size="14.00">network.target</text>
</g>
<!-- network&#45;online.target&#45;&gt;network.target -->
<g id="edge30" class="edge"><title>network&#45;online.target&#45;&gt;network.target</title>
<path fill="none" stroke="green" d="M125.754,-216.055C132.442,-207.543 140.672,-197.068 148.047,-187.681"/>
<polygon fill="green" stroke="green" points="150.823,-189.815 154.249,-179.789 145.318,-185.49 150.823,-189.815"/>
</g>
<!-- network.target&#45;&gt;shutdown.target -->
<g id="edge48" class="edge"><title>network.target&#45;&gt;shutdown.target</title>
<path fill="none" stroke="red" d="M145.865,-144.383C123.55,-125.268 94.6625,-93.7292 115.44,-72 152.72,-33.0125 924.208,-22.3278 1200.82,-19.7441"/>
<polygon fill="red" stroke="red" points="1200.88,-23.2438 1210.85,-19.652 1200.81,-16.2441 1200.88,-23.2438"/>
</g>
<!-- network.target&#45;&gt;network&#45;pre.target -->
<g id="edge47" class="edge"><title>network.target&#45;&gt;network&#45;pre.target</title>
<path fill="none" stroke="green" d="M180.996,-144.055C187.706,-135.668 195.939,-125.376 203.363,-116.096"/>
<polygon fill="green" stroke="green" points="206.106,-118.27 209.62,-108.275 200.64,-113.898 206.106,-118.27"/>
</g>
<!-- cryptsetup.target&#45;&gt;shutdown.target -->
<g id="edge33" class="edge"><title>cryptsetup.target&#45;&gt;shutdown.target</title>
<path fill="none" stroke="red" d="M1156.46,-145.155C1175.44,-135.73 1198.76,-122.749 1217.44,-108 1241.29,-89.1638 1264.19,-62.9959 1279.52,-43.9113"/>
<polygon fill="red" stroke="red" points="1282.36,-45.9681 1285.81,-35.9508 1276.86,-41.6301 1282.36,-45.9681"/>
</g>
<!-- swap.target&#45;&gt;shutdown.target -->
<g id="edge49" class="edge"><title>swap.target&#45;&gt;shutdown.target</title>
<path fill="none" stroke="red" d="M1298.44,-143.871C1298.44,-119.67 1298.44,-75.2108 1298.44,-46.3932"/>
<polygon fill="red" stroke="red" points="1301.94,-46.1892 1298.44,-36.1893 1294.94,-46.1893 1301.94,-46.1892"/>
</g>
<!-- local&#45;fs.target&#45;&gt;shutdown.target -->
<g id="edge46" class="edge"><title>local&#45;fs.target&#45;&gt;shutdown.target</title>
<path fill="none" stroke="red" d="M1407.96,-148.56C1383.77,-140.423 1355.89,-127.575 1336.44,-108 1319.58,-91.029 1309.71,-65.3988 1304.28,-45.9947"/>
<polygon fill="red" stroke="red" points="1307.65,-45.0352 1301.77,-36.2223 1300.87,-46.779 1307.65,-45.0352"/>
</g>
<!-- local&#45;fs.target&#45;&gt;local&#45;fs&#45;pre.target -->
<g id="edge45" class="edge"><title>local&#45;fs.target&#45;&gt;local&#45;fs&#45;pre.target</title>
<path fill="none" stroke="green" d="M1453.74,-143.697C1451.63,-135.898 1449.08,-126.509 1446.72,-117.829"/>
<polygon fill="green" stroke="green" points="1450.08,-116.838 1444.08,-108.104 1443.32,-118.672 1450.08,-116.838"/>
</g>
<!-- nss&#45;user&#45;lookup.target -->
<g id="node24" class="node"><title>nss&#45;user&#45;lookup.target</title>
<ellipse fill="none" stroke="black" cx="983.44" cy="-90" rx="115.88" ry="18"/>
<text text-anchor="middle" x="983.44" y="-86.3" font-family="Times,serif" font-size="14.00">nss&#45;user&#45;lookup.target</text>
</g>
<!-- nss&#45;user&#45;lookup.target&#45;&gt;shutdown.target -->
<g id="edge50" class="edge"><title>nss&#45;user&#45;lookup.target&#45;&gt;shutdown.target</title>
<path fill="none" stroke="red" d="M1046.81,-74.9187C1100.34,-63.0231 1176.78,-46.0353 1231.34,-33.9106"/>
<polygon fill="red" stroke="red" points="1232.26,-37.2916 1241.27,-31.7056 1230.74,-30.4583 1232.26,-37.2916"/>
</g>
<!-- graphical.target -->
<g id="node25" class="node"><title>graphical.target</title>
<ellipse fill="none" stroke="black" cx="1511.44" cy="-450" rx="86.3847" ry="18"/>
<text text-anchor="middle" x="1511.44" y="-446.3" font-family="Times,serif" font-size="14.00">graphical.target</text>
</g>
<!-- graphical.target&#45;&gt;multi&#45;user.target -->
<g id="edge51" class="edge"><title>graphical.target&#45;&gt;multi&#45;user.target</title>
<path fill="none" stroke="green" d="M1505.52,-431.697C1504.73,-423.983 1504.5,-414.712 1504.84,-406.112"/>
<polygon fill="green" stroke="green" points="1508.34,-406.324 1505.54,-396.104 1501.36,-405.836 1508.34,-406.324"/>
</g>
<!-- graphical.target&#45;&gt;multi&#45;user.target -->
<g id="edge53" class="edge"><title>graphical.target&#45;&gt;multi&#45;user.target</title>
<path fill="none" stroke="black" d="M1517.36,-431.697C1518.15,-423.983 1518.38,-414.712 1518.04,-406.112"/>
<polygon fill="black" stroke="black" points="1521.52,-405.836 1517.34,-396.104 1514.54,-406.324 1521.52,-405.836"/>
</g>
<!-- graphical.target&#45;&gt;rescue.target -->
<g id="edge52" class="edge"><title>graphical.target&#45;&gt;rescue.target</title>
<path fill="none" stroke="green" d="M1466.83,-434.329C1446.13,-425.261 1422.35,-412.244 1404.44,-396 1384.81,-378.196 1368.47,-352.708 1359.37,-333.567"/>
<polygon fill="green" stroke="green" points="1362.5,-331.978 1355.29,-324.21 1356.08,-334.776 1362.5,-331.978"/>
</g>
<!-- graphical.target&#45;&gt;rescue.target -->
<g id="edge54" class="edge"><title>graphical.target&#45;&gt;rescue.target</title>
<path fill="none" stroke="red" d="M1480.02,-432.996C1461.86,-424.004 1439.49,-411.464 1422.44,-396 1402.42,-377.843 1385.83,-351.694 1373.57,-332.436"/>
<polygon fill="red" stroke="red" points="1376.42,-330.393 1368.07,-323.864 1370.52,-334.171 1376.42,-330.393"/>
</g>
<!-- graphical.target&#45;&gt;shutdown.target -->
<g id="edge55" class="edge"><title>graphical.target&#45;&gt;shutdown.target</title>
<path fill="none" stroke="red" d="M1595.76,-445.88C1757.05,-437.604 2093.44,-408.211 2093.44,-307 2093.44,-307 2093.44,-307 2093.44,-161 2093.44,-118.965 2094.97,-97.3549 2061.44,-72 2009.55,-32.7552 1589.89,-22.5364 1396,-19.9021"/>
<polygon fill="red" stroke="red" points="1395.86,-16.4 1385.81,-19.7679 1395.77,-23.3994 1395.86,-16.4"/>
</g>
</g>
</svg>
